<?xml version="1.0" standalone="no"?>
<!DOCTYPE svg PUBLIC "-//W3C//DTD SVG 1.1//EN"
"http://www.w3.org/Graphics/SVG/1.1/DTD/svg11.dtd">
<svg height="600" version="1.1" width="800" xmlns="http://www.w3.org/2000/svg"><g><rect fill="#f9f9f9" height="600" width="800" x="0" y="0" /><g transform="translate(40 40)"><g transform="translate(64 0)"><text fill="#333" font-family="Monaco" font-size="16" x="0" y="0">Cost to implement 50% daily generation in your area</text></g><g transform="translate(0 20)"><g transform="translate(64 0)"><g class="axis bottom"><g class="tick"><line stroke="#eee" stroke-width="1" x1="164" x2="164" y1="0" y2="482.0" /><text dy="1em" fill="#9c9c9c" font-family="Monaco" text-anchor="middle" x="164" y="486.0">Wind</text></g><g class="tick"><line stroke="#eee" stroke-width="1" x1="492" x2="492" y1="0" y2="482.0" /><text dy="1em" fill="#9c9c9c" font-family="Monaco" text-anchor="middle" x="492" y="486.0">Solar</text></g></g><g class="axis left"><g class="tick"><line stroke="#eee" stroke-width="1" x1="-4" x2="656.0" y1="358.50" y2="358.50" /><text dy="0.32em" fill="#9c9c9c" font-family="Monaco" text-anchor="end" x="-8" y="358.50">250000</text></g><g class="tick"><line stroke="#eee" stroke-width="1" x1="-4" x2="656.0" y1="239.0" y2="239.0" /><text dy="0.32em" fill="#9c9c9c" font-family="Monaco" text-anchor="end" x="-8" y="239.0">500000</text></g><g class="tick"><line stroke="#eee" stroke-width="1" x1="-4" x2="656.0" y1="119.50" y2="119.50" /><text dy="0.32em" fill="#9c9c9c" font-family="Monaco" text-anchor="end" x="-8" y="119.50">750000</text></g><g class="tick"><line stroke="#eee" stroke-width="1" x1="-4" x2="656.0" y1="0" y2="0" /><text dy="0.32em" fill="#9c9c9c" font-family="Monaco" text-anchor="end" x="-8" y="0">1000000</text></g><g class="tick"><line stroke="#a8a8a8" stroke-width="1" x1="-4" x2="656.0" y1="478" y2="478" /><text dy="0.32em" fill="#9c9c9c" font-family="Monaco" text-anchor="end" x="-8" y="478">0</text></g></g><g><g class="series columns"><rect fill="#8CC63F" height="395.4113990" width="295.2" x="16.4" y="82.5886010" /><rect fill="#8CC63F" height="358.50" width="295.2" x="344.4" y="119.50" /></g></g></g></g></g></g></svg>