<?xml version="1.0" standalone="no"?>
<!DOCTYPE svg PUBLIC "-//W3C//DTD SVG 1.1//EN"
"http://www.w3.org/Graphics/SVG/1.1/DTD/svg11.dtd">
<svg height="600" version="1.1" width="800" xmlns="http://www.w3.org/2000/svg"><g><rect fill="#f9f9f9" height="600" width="800" x="0" y="0" /><g transform="translate(40 40)"><g transform="translate(32 0)"><text fill="#333" font-family="Monaco" font-size="16" x="0" y="0">Validity Ranking</text></g><g transform="translate(0 20)"><g transform="translate(32 0)"><g class="axis bottom"><g class="tick"><line stroke="#eee" stroke-width="1" x1="172" x2="172" y1="0" y2="482.0" /><text dy="1em" fill="#9c9c9c" font-family="Monaco" text-anchor="middle" x="172" y="486.0">Wind</text></g><g class="tick"><line stroke="#eee" stroke-width="1" x1="516" x2="516" y1="0" y2="482.0" /><text dy="1em" fill="#9c9c9c" font-family="Monaco" text-anchor="middle" x="516" y="486.0">Solar</text></g></g><g class="axis left"><g class="tick"><line stroke="#eee" stroke-width="1" x1="-4" x2="688.0" y1="318.6666666666666666666666667" y2="318.6666666666666666666666667" /><text dy="0.32em" fill="#9c9c9c" font-family="Monaco" text-anchor="end" x="-8" y="318.6666666666666666666666667">2.5</text></g><g class="tick"><line stroke="#eee" stroke-width="1" x1="-4" x2="688.0" y1="159.3333333333333333333333333" y2="159.3333333333333333333333333" /><text dy="0.32em" fill="#9c9c9c" font-family="Monaco" text-anchor="end" x="-8" y="159.3333333333333333333333333">5</text></g><g class="tick"><line stroke="#eee" stroke-width="1" x1="-4" x2="688.0" y1="0" y2="0" /><text dy="0.32em" fill="#9c9c9c" font-family="Monaco" text-anchor="end" x="-8" y="0">7.5</text></g><g class="tick"><line stroke="#a8a8a8" stroke-width="1" x1="-4" x2="688.0" y1="478" y2="478" /><text dy="0.32em" fill="#9c9c9c" font-family="Monaco" text-anchor="end" x="-8" y="478">0</text></g></g><g><g class="series columns"><rect fill="#8CD63F" height="25.4933333333333347484976154" width="309.6" x="17.2" y="452.5066666666666652515023846" /><rect fill="#8CD63F" height="439.7600000000000226426285129" width="309.6" x="361.2" y="38.2399999999999773573714871" /></g></g></g></g></g></g></svg>